<?xml version="1.0" encoding="utf-8"?>
<!-- Generator: Adobe Illustrator 24.0.2, SVG Export Plug-In . SVG Version: 6.00 Build 0)  -->
<svg version="1.1" id="Layer_1" xmlns="http://www.w3.org/2000/svg" xmlns:xlink="http://www.w3.org/1999/xlink" x="0px" y="0px"
	 viewBox="0 0 40 40" style="enable-background:new 0 0 40 40;" xml:space="preserve">
<style type="text/css">
	.st0{fill:none;stroke:#E9B2BC;stroke-miterlimit:10;}
</style>
<g>
	<g>
		<path class="st0" d="M28.4,27.4c-0.7,4.6-4,6-4,6c3.5-4.3,2.4-7.5,2.4-7.5c-0.6-1.7-1.4-0.5-1.4-0.5c-2.5,2.7-4.5,1.6-4.5,1.6
			c-3.2-1.5-3-4.5-2.5-6.1c0.1-0.3,0.8-2,1.2-2.9c0.4-1.1-0.4-1.3-0.8-1.2c-0.9,0.3-2.3,2-2.9,2.8C12.3,24,13,28.4,13,28.4
			c0.5,3.1,2.6,5,2.6,5c-4.9-2.6-3.8-8.8-3.8-8.8c0.3-3,4.1-8,4.1-8c0.3-0.3,1.5-2,1.9-2.6c2.3-3.5,2.2-8.6,2.2-8.6
			c4.2,4.6,3.2,9.9,3.2,9.9c-0.4,2.1-1.5,3.5-2.3,4.4c-1,1.2-0.8,3-0.8,3c0.6,3.1,2.7,2,2.7,2c1.7-0.7,2.1-3.4,2.1-3.4
			c0.3-2-0.3-4.3-0.3-4.3c3.4,3.7,3.7,6.7,3.7,6.7C28.6,24.8,28.5,26.5,28.4,27.4 M20,0.2C9.6,0.2,1,9.1,1,20s8.5,19.8,19,19.8
			S39,30.9,39,20S30.4,0.2,20,0.2"/>
	</g>
</g>
</svg>
