<?xml version="1.0" encoding="utf-8"?>
<!-- Generator: Adobe Illustrator 24.0.2, SVG Export Plug-In . SVG Version: 6.00 Build 0)  -->
<svg version="1.1" id="Layer_1" xmlns="http://www.w3.org/2000/svg" xmlns:xlink="http://www.w3.org/1999/xlink" x="0px" y="0px"
	 viewBox="0 0 40 40" style="enable-background:new 0 0 40 40;" xml:space="preserve">
<style type="text/css">
	.st0{fill:none;stroke:#FFFFFF;stroke-miterlimit:10;}
</style>
<g>
	<g>
		<path class="st0" d="M-163.6,80.7c-6.4,40.9-37.5,53.4-37.5,53.4c33-38.2,22-66.7,22-66.7c-5.5-15.1-12.8-4.4-12.8-4.4
			c-22.9,24-42.1,14.2-42.1,14.2c-30.2-13.3-27.5-40-22.9-54.3c0.9-2.7,7.3-17.8,11-25.8c3.7-9.8-3.7-11.6-7.3-10.7
			c-8.2,2.7-21.1,17.8-26.5,24.9c-33,39.1-26.5,78.3-26.5,78.3c4.6,27.6,23.8,44.5,23.8,44.5c-45.8-23.1-35.7-78.3-35.7-78.3
			c2.7-26.7,38.4-71.2,38.4-71.2c2.7-2.7,13.7-17.8,17.4-23.1c21.1-31.1,20.1-76.5,20.1-76.5c39.4,40.9,30.2,88,30.2,88
			c-3.7,18.7-13.7,31.1-21.1,39.1c-9.2,10.7-7.3,26.7-7.3,26.7c5.5,27.6,24.7,17.8,24.7,17.8c15.6-6.2,19.2-30.2,19.2-30.2
			c2.7-17.8-2.7-38.2-2.7-38.2c32,32.9,34.8,59.6,34.8,59.6C-161.7,57.6-162.6,72.7-163.6,80.7 M-241.3-161.2
			c-97,0-176.7,79.2-176.7,176.1S-339.3,191-241.3,191S-64.7,111.8-64.7,14.9S-144.3-161.2-241.3-161.2"/>
	</g>
</g>
</svg>
